# xmcd
#
# Track frame offsets: 
#        150
#        19222
#        32083
#        46717
#        58344
#        67083
#        79151
#        90740
#        103784
#        117363
#        130340
#        142606
#        155077
#        167049
#        176549
#        188183
#        201355
#        212865
#        223807
#        234504
#        244427
#        254688
#        265938
#
# Disc length: 3715 seconds
#
# Revision: 0
# Processed by: cddbd v1.5.2PL0 Copyright (c) Steve Scherf et al.
# Submitted via: ExactAudioCopy v1.0b3
#
DISCID=610e8117
DTITLE=Various Artist - Roots Of Ska - USA Jamaica 1942-1962 [CD3]
DYEAR=2013
DGENRE=Blues
TTITLE0=Owen Gray - Rocking in My Feet
TTITLE1=Clue J and His Blues Blasters - Silky
TTITLE2=Roland Alphonso - Yard Broom
TTITLE3=Lloyd Clarke - Japanese Girl
TTITLE4=Don Drummond - That Man Is Back
TTITLE5=Bob Marley - One Cup of Coffee
TTITLE6=Owen Gray - Midnight Track
TTITLE7=Eric Marty Morris - Me and My Forty Five
TTITLE8=Rico Rodriguez - Magic
TTITLE9=Chuck and Doddy - Cool School
TTITLE10=Matador All Stars - Bridgeview Shuffle
TTITLE11=Theophilus Beckford - That's Me
TTITLE12=Count Ossie and the Wareikas - African Shuffle
TTITLE13=The Jiving Juniors - Over the River
TTITLE14=Winston - I Love You
TTITLE15=Rico Rodriguez - Luke Lane Shuffle
TTITLE16=Laurel Aitken - Bouncing Woman
TTITLE17=Audrey Adams - Stew Peas and Cornflakes
TTITLE18=Cornell Campbell - Rosabelle
TTITLE19=Chuck and Doddy - I Was Wrong
TTITLE20=Busty and Cool - What a World
TTITLE21=The Angelic Brothers - Ten Virgins
TTITLE22=Azie Lawrence - Jamaica Blues
EXTD=
EXTT0=
EXTT1=
EXTT2=
EXTT3=
EXTT4=
EXTT5=
EXTT6=
EXTT7=
EXTT8=
EXTT9=
EXTT10=
EXTT11=
EXTT12=
EXTT13=
EXTT14=
EXTT15=
EXTT16=
EXTT17=
EXTT18=
EXTT19=
EXTT20=
EXTT21=
EXTT22=
PLAYORDER=
